<svg width="504" height="506" viewBox="0 0 504 506" fill="none" xmlns="http://www.w3.org/2000/svg">
<g clip-path="url(#clip0)">
<rect width="504" height="506" fill="#091734"/>
<rect x="253" width="253" height="253" transform="rotate(90 253 0)" fill="#FF8DC8"/>
<g filter="url(#filter0_f)">
<rect x="192" y="25" width="228" height="130" transform="rotate(90 192 25)" fill="#701E48" fill-opacity="0.2"/>
</g>
<rect x="175" width="253" height="96" transform="rotate(90 175 0)" fill="#EB3C96"/>
<g filter="url(#filter1_f)">
<rect x="73" y="14" width="108" height="77" rx="2" fill="#632F4A" fill-opacity="0.7"/>
</g>
<rect x="1.52588e-05" width="254" height="75" rx="2" fill="#891952"/>
<rect x="504" y="253" width="253" height="251" transform="rotate(90 504 253)" fill="#81BBE9"/>
<g filter="url(#filter2_f)">
<rect x="371" y="253" width="252" height="118" transform="rotate(90 371 253)" fill="#34414B" fill-opacity="0.2"/>
</g>
<rect x="332" y="253" width="253" height="79" transform="rotate(90 332 253)" fill="#479ADA"/>
<g filter="url(#filter3_f)">
<rect x="327" y="253" width="82" height="69" transform="rotate(90 327 253)" fill="#0B283F" fill-opacity="0.4"/>
</g>
<g filter="url(#filter4_f)">
<rect x="327" y="388" width="72" height="69" transform="rotate(90 327 388)" fill="#0B283F" fill-opacity="0.4"/>
</g>
<rect x="504" y="253" width="75" height="251" transform="rotate(90 504 253)" fill="#0F69AF"/>
<rect x="429" y="369" width="70" height="176" transform="rotate(90 429 369)" fill="#0F69AF"/>
<rect x="503" width="253" height="250" transform="rotate(90 503 0)" fill="#64D3DE"/>
<g filter="url(#filter5_f)">
<rect x="345" width="253" height="68" transform="rotate(90 345 0)" fill="#2F484A" fill-opacity="0.2"/>
</g>
<rect x="332" width="253" height="79" transform="rotate(90 332 0)" fill="#2BB1BF"/>
<g filter="url(#filter6_f)">
<rect x="454" y="6" width="247" height="51" transform="rotate(90 454 6)" fill="#0C3D48" fill-opacity="0.2"/>
</g>
<rect x="504" width="253" height="85" transform="rotate(90 504 0)" fill="#218196"/>
<rect x="253" y="253" width="253" height="253" transform="rotate(90 253 253)" fill="#BB9FF8"/>
<g filter="url(#filter7_f)">
<path d="M296.5 -2.29216e-07L331 142L253 22.5L253 -1.58461e-07L296.5 -2.29216e-07Z" fill="#164C5C" fill-opacity="0.6"/>
</g>
<g filter="url(#filter8_f)">
<path d="M421.5 100L503 251.5L403 149.5L403 127L421.5 100Z" fill="#164C5C" fill-opacity="0.6"/>
</g>
<path d="M359.193 -7.48514e-06L504 253L395.806 253L253 -7.48513e-06L359.193 -7.48514e-06Z" fill="#18586C"/>
<g filter="url(#filter9_f)">
<rect x="225" y="279" width="206" height="79" transform="rotate(90 225 279)" fill="#47356C" fill-opacity="0.2"/>
</g>
<rect x="253" y="253" width="253" height="78" transform="rotate(90 253 253)" fill="#9470DD"/>
<g filter="url(#filter10_f)">
<rect x="102" y="279" width="221" height="91" transform="rotate(90 102 279)" fill="#47356C" fill-opacity="0.2"/>
</g>
<rect x="80" y="253" width="253" height="80" transform="rotate(90 80 253)" fill="#9470DD"/>
<g filter="url(#filter11_f)">
<path d="M81.9714 265L116 413L59.6364 413L11 265L81.9714 265Z" fill="#2D1D4F" fill-opacity="0.3"/>
</g>
<g filter="url(#filter12_f)">
<path d="M175.594 265L138 408L200.268 408L254 265L175.594 265Z" fill="#2D1D4F" fill-opacity="0.4"/>
</g>
<path d="M99 253L175 423L80 423L4.57764e-05 253L99 253Z" fill="#714EBB"/>
<path d="M154.5 253L80 423L174.5 423L253 253L154.5 253Z" fill="#503291"/>
</g>
<defs>
<filter id="filter0_f" x="2.00003" y="-35" width="250" height="348" filterUnits="userSpaceOnUse" color-interpolation-filters="sRGB">
<feFlood flood-opacity="0" result="BackgroundImageFix"/>
<feBlend mode="normal" in="SourceGraphic" in2="BackgroundImageFix" result="shape"/>
<feGaussianBlur stdDeviation="30" result="effect1_foregroundBlur"/>
</filter>
<filter id="filter1_f" x="23" y="-36" width="208" height="177" filterUnits="userSpaceOnUse" color-interpolation-filters="sRGB">
<feFlood flood-opacity="0" result="BackgroundImageFix"/>
<feBlend mode="normal" in="SourceGraphic" in2="BackgroundImageFix" result="shape"/>
<feGaussianBlur stdDeviation="25" result="effect1_foregroundBlur"/>
</filter>
<filter id="filter2_f" x="193" y="193" width="238" height="372" filterUnits="userSpaceOnUse" color-interpolation-filters="sRGB">
<feFlood flood-opacity="0" result="BackgroundImageFix"/>
<feBlend mode="normal" in="SourceGraphic" in2="BackgroundImageFix" result="shape"/>
<feGaussianBlur stdDeviation="30" result="effect1_foregroundBlur"/>
</filter>
<filter id="filter3_f" x="198" y="193" width="189" height="202" filterUnits="userSpaceOnUse" color-interpolation-filters="sRGB">
<feFlood flood-opacity="0" result="BackgroundImageFix"/>
<feBlend mode="normal" in="SourceGraphic" in2="BackgroundImageFix" result="shape"/>
<feGaussianBlur stdDeviation="30" result="effect1_foregroundBlur"/>
</filter>
<filter id="filter4_f" x="198" y="328" width="189" height="192" filterUnits="userSpaceOnUse" color-interpolation-filters="sRGB">
<feFlood flood-opacity="0" result="BackgroundImageFix"/>
<feBlend mode="normal" in="SourceGraphic" in2="BackgroundImageFix" result="shape"/>
<feGaussianBlur stdDeviation="30" result="effect1_foregroundBlur"/>
</filter>
<filter id="filter5_f" x="227" y="-50" width="168" height="353" filterUnits="userSpaceOnUse" color-interpolation-filters="sRGB">
<feFlood flood-opacity="0" result="BackgroundImageFix"/>
<feBlend mode="normal" in="SourceGraphic" in2="BackgroundImageFix" result="shape"/>
<feGaussianBlur stdDeviation="25" result="effect1_foregroundBlur"/>
</filter>
<filter id="filter6_f" x="353" y="-44" width="151" height="347" filterUnits="userSpaceOnUse" color-interpolation-filters="sRGB">
<feFlood flood-opacity="0" result="BackgroundImageFix"/>
<feBlend mode="normal" in="SourceGraphic" in2="BackgroundImageFix" result="shape"/>
<feGaussianBlur stdDeviation="25" result="effect1_foregroundBlur"/>
</filter>
<filter id="filter7_f" x="233" y="-20" width="118" height="182" filterUnits="userSpaceOnUse" color-interpolation-filters="sRGB">
<feFlood flood-opacity="0" result="BackgroundImageFix"/>
<feBlend mode="normal" in="SourceGraphic" in2="BackgroundImageFix" result="shape"/>
<feGaussianBlur stdDeviation="10" result="effect1_foregroundBlur"/>
</filter>
<filter id="filter8_f" x="383" y="80" width="140" height="191.5" filterUnits="userSpaceOnUse" color-interpolation-filters="sRGB">
<feFlood flood-opacity="0" result="BackgroundImageFix"/>
<feBlend mode="normal" in="SourceGraphic" in2="BackgroundImageFix" result="shape"/>
<feGaussianBlur stdDeviation="10" result="effect1_foregroundBlur"/>
</filter>
<filter id="filter9_f" x="96" y="229" width="179" height="306" filterUnits="userSpaceOnUse" color-interpolation-filters="sRGB">
<feFlood flood-opacity="0" result="BackgroundImageFix"/>
<feBlend mode="normal" in="SourceGraphic" in2="BackgroundImageFix" result="shape"/>
<feGaussianBlur stdDeviation="25" result="effect1_foregroundBlur"/>
</filter>
<filter id="filter10_f" x="-39" y="229" width="191" height="321" filterUnits="userSpaceOnUse" color-interpolation-filters="sRGB">
<feFlood flood-opacity="0" result="BackgroundImageFix"/>
<feBlend mode="normal" in="SourceGraphic" in2="BackgroundImageFix" result="shape"/>
<feGaussianBlur stdDeviation="25" result="effect1_foregroundBlur"/>
</filter>
<filter id="filter11_f" x="-39" y="215" width="205" height="248" filterUnits="userSpaceOnUse" color-interpolation-filters="sRGB">
<feFlood flood-opacity="0" result="BackgroundImageFix"/>
<feBlend mode="normal" in="SourceGraphic" in2="BackgroundImageFix" result="shape"/>
<feGaussianBlur stdDeviation="25" result="effect1_foregroundBlur"/>
</filter>
<filter id="filter12_f" x="88" y="215" width="216" height="243" filterUnits="userSpaceOnUse" color-interpolation-filters="sRGB">
<feFlood flood-opacity="0" result="BackgroundImageFix"/>
<feBlend mode="normal" in="SourceGraphic" in2="BackgroundImageFix" result="shape"/>
<feGaussianBlur stdDeviation="25" result="effect1_foregroundBlur"/>
</filter>
<clipPath id="clip0">
<rect width="504" height="506" fill="white"/>
</clipPath>
</defs>
</svg>
